<?xml version="1.0" encoding="utf-8"?>
<!-- Generator: Adobe Illustrator 20.1.0, SVG Export Plug-In . SVG Version: 6.00 Build 0)  -->
<svg version="1.1" id="Camada_1" xmlns="http://www.w3.org/2000/svg" xmlns:xlink="http://www.w3.org/1999/xlink" x="0px" y="0px"
	 viewBox="0 0 960 560" style="enable-background:new 0 0 960 560;" xml:space="preserve">
<g>
	<g>
		<path d="M303.7,219c-2.4,7-6.7,11.8-11.9,16.3c-5.3,4.6-11.6,8.8-18.2,12c-6.7,3.2-13.8,6-21.1,8c-14.7,4.1-30.3,6.1-45.9,6.1
			c-1.8,0-4,0-5.9-0.1c-1.9-0.1-3.8-0.1-5.8-0.3c-1.9-0.1-3.9-0.2-5.8-0.5l-2.9-0.3l-2.9-0.4c-3.8-0.5-7.6-1.1-11.4-1.9
			c-3.7-0.8-7.4-1.6-11.1-2.7c-7.3-2-14.2-4.7-20.8-7.8c-6.5-3.2-12.6-6.9-17.6-11.2c-5.1-4.3-9.6-9.3-11.9-14.6
			c-0.5-1.2-0.6-2.5-1.6-3.7V218H96v0.3c0,3,1.1,6,2.3,8.9c1.6,4,3.8,7.8,6.4,11.1c2.6,3.3,5.5,6.3,8.7,9c6.4,5.3,13.5,9.5,21,12.8
			c7.5,3.3,15.3,5.8,23.3,7.7c16,3.8,32.6,5.1,49,4.6c16.4-0.6,32.8-3,48.4-7.8c7.8-2.4,15.3-5.4,22.4-9.1
			c7.1-3.8,13.8-8.2,19.6-13.7c5.8-5.5,10.8-12.5,13.4-20.1c0.2-0.7,0.5-0.8,0.7-2.8H303.7z"/>
	</g>
	<polygon points="68.3,36.6 71.1,214.6 80.4,214.6 83.2,36.6 	"/>
	<g>
		<path d="M204.9,156.7c-4.2,0-8.3,0-12.3,0.2L159.6,36h-10l-54,179h14.2c1.7-9,3.9-12.7,3.9-12.7c11.7-17.3,39.4-31.3,73.9-36.6
			l17.1,49.3h3.5l-13.7-50.3c2.1-0.2,4.3-0.6,6.5-0.7c14.3-1.2,28-0.7,40.6,1.1l2.9-4.3C232.3,158.2,218.9,156.7,204.9,156.7z
			 M121.4,177.6l33.3-106.4l30.2,86.6C159.6,160.2,137.3,167.4,121.4,177.6z"/>
		<polygon points="334.3,247.1 293,195.1 238.2,206.7 243.8,214.2 288.4,204.9 326.4,248.8 		"/>
	</g>
</g>
<g>
	<path d="M348.6,36.6v21.7H343V36.6H348.6z"/>
	<path d="M353.2,58.3V36.6h5.6l10.4,13.3V36.6h5.6v21.7h-5.6L358.8,45v13.3H353.2z"/>
	<path d="M393.5,37.8l-2.3,4.4c-1.2-1-2.4-1.5-3.7-1.5c-0.8,0-1.4,0.2-1.9,0.7c-0.4,0.4-0.6,0.8-0.6,1.2c0,0.7,0.5,1.2,1.4,1.6
		c0.3,0.1,1.1,0.4,2.6,0.8c1.9,0.6,3.2,1.3,4.1,2.3c0.8,0.9,1.2,2.2,1.2,3.8c0,2.8-0.9,4.8-2.8,6.1c-1.5,1.1-3.4,1.6-5.7,1.6
		c-2.7,0-5.2-0.8-7.5-2.5l2.4-4.5c1.7,1.5,3.3,2.2,5,2.2c1,0,1.7-0.3,2.2-0.8c0.4-0.4,0.5-0.9,0.5-1.3c0-0.6-0.2-1.1-0.7-1.4
		s-1.4-0.7-2.7-1.1c-2.1-0.6-3.4-1.2-4.1-1.7c-1.2-0.9-1.7-2.4-1.7-4.3c0-2.3,0.7-4.1,2.2-5.4c1.4-1.3,3.1-1.9,5.1-1.9
		C389,36.1,391.3,36.7,393.5,37.8z"/>
	<path d="M406.2,41.4v16.9h-5.6V41.4h-4.6v-4.8h14.9v4.8H406.2z"/>
	<path d="M419,36.6v21.7h-5.6V36.6H419z"/>
	<path d="M431.7,41.4v16.9h-5.6V41.4h-4.6v-4.8h14.9v4.8H431.7z"/>
	<path d="M444.5,36.6v11.7c0,1.2,0,2.1,0.1,2.5c0.1,0.4,0.2,0.9,0.5,1.4c0.6,1.1,1.7,1.7,3.1,1.7c0.7,0,1.4-0.2,2-0.5s1-0.7,1.3-1.3
		c0.2-0.4,0.4-0.9,0.5-1.4c0.1-0.5,0.1-1.3,0.1-2.4V36.6h5.6v12.5c0,2.1-0.3,3.7-0.8,4.8c-0.8,1.7-2.1,3-3.8,3.8
		c-1.4,0.7-3.1,1.1-5,1.1c-2.2,0-4.1-0.5-5.7-1.4c-1.3-0.8-2.3-1.8-2.8-3.1c-0.5-1.2-0.8-3-0.8-5.3V36.6H444.5z"/>
	<path d="M470.5,41.4v16.9h-5.6V41.4h-4.6v-4.8h14.9v4.8H470.5z"/>
	<path d="M488.3,35.9c3.6,0,6.6,1.2,8.9,3.6c2.1,2.2,3.1,4.8,3.1,7.9c0,2.1-0.5,4.1-1.6,5.9c-1.1,1.9-2.7,3.4-4.7,4.4
		c-1.7,0.9-3.7,1.3-5.9,1.3c-3.6,0-6.5-1.2-8.8-3.6c-2.1-2.2-3.1-4.9-3.1-8.1c0-2,0.5-3.9,1.6-5.7C480.1,37.9,483.6,36,488.3,35.9z
		 M488.3,41.4c-1.7,0-3.1,0.6-4.3,1.8c-1.2,1.2-1.8,2.6-1.8,4.2c0,1.7,0.6,3.2,1.8,4.4c1.2,1.2,2.6,1.8,4.3,1.8
		c1.7,0,3.1-0.6,4.3-1.8c1.2-1.2,1.8-2.6,1.8-4.3c0-1.7-0.6-3.1-1.8-4.3C491.5,42,490,41.4,488.3,41.4z"/>
	<path d="M512.1,58.3V36.6h8.3c2.7,0,5.1,1,7.1,2.9c1.2,1.1,2.1,2.4,2.7,3.8c0.6,1.4,0.9,2.7,0.9,4.1c0,2.1-0.6,4-1.7,5.8
		c-1.2,1.8-2.7,3.2-4.6,4.1c-1.4,0.7-2.9,1-4.4,1H512.1z M517.7,53.5h1.3c1.1,0,2-0.1,2.7-0.4s1.4-0.7,1.9-1.4
		c1-1.2,1.6-2.6,1.6-4.3c0-1.7-0.5-3.1-1.6-4.3c-0.6-0.6-1.2-1.1-1.9-1.4s-1.6-0.4-2.7-0.4h-1.3V53.5z"/>
	<path d="M547,41.4h-6.7V45h6.3v4.8h-6.3v3.8h6.7v4.8h-12.3V36.6H547V41.4z"/>
	<path d="M356.1,93.6h-7.8l-1.5,3.8h-6l8.3-21.7h6.1l8.2,21.7h-6L356.1,93.6z M354.6,89.3l-2.3-6.9l-2.4,6.9H354.6z"/>
	<path d="M380.2,76.9l-2.3,4.4c-1.2-1-2.4-1.5-3.7-1.5c-0.8,0-1.4,0.2-1.9,0.7c-0.4,0.4-0.6,0.8-0.6,1.2c0,0.7,0.5,1.2,1.4,1.6
		c0.3,0.1,1.1,0.4,2.6,0.8c1.9,0.6,3.2,1.3,4.1,2.3s1.2,2.2,1.2,3.8c0,2.8-0.9,4.8-2.8,6.1c-1.5,1.1-3.4,1.6-5.7,1.6
		c-2.7,0-5.2-0.8-7.5-2.5l2.4-4.5c1.7,1.5,3.3,2.2,5,2.2c1,0,1.7-0.3,2.2-0.8c0.4-0.4,0.5-0.9,0.5-1.3c0-0.6-0.2-1.1-0.7-1.4
		c-0.5-0.3-1.4-0.7-2.7-1.1c-2.1-0.6-3.4-1.2-4.1-1.7c-1.2-0.9-1.7-2.4-1.7-4.3c0-2.3,0.7-4.1,2.2-5.4c1.4-1.3,3.1-1.9,5.1-1.9
		C375.7,75.1,378,75.7,380.2,76.9z"/>
	<path d="M392.9,80.4v16.9h-5.6V80.4h-4.6v-4.8h14.9v4.8H392.9z"/>
	<path d="M411.3,88.4l6.8,8.9h-7l-5.4-8.3v8.3H400V75.6h8.8c1.2,0,2.3,0.2,3.1,0.5s1.6,0.8,2.2,1.4c1.2,1.3,1.9,2.9,1.9,4.8
		c0,1-0.2,1.9-0.5,2.7c-0.4,0.9-0.8,1.6-1.4,2.1C413.3,87.7,412.4,88.2,411.3,88.4z M405.7,85.4h1c1.1,0,1.9-0.2,2.4-0.6
		c0.3-0.2,0.5-0.5,0.7-0.9c0.2-0.4,0.3-0.8,0.3-1.2c0-0.4-0.1-0.8-0.3-1.2s-0.5-0.7-0.7-0.9c-0.5-0.4-1.3-0.6-2.4-0.6h-1V85.4z"/>
	<path d="M431,75c3.6,0,6.6,1.2,8.9,3.6c2.1,2.2,3.1,4.8,3.1,7.9c0,2.1-0.5,4.1-1.6,5.9c-1.1,1.9-2.7,3.4-4.7,4.4
		c-1.7,0.9-3.7,1.3-5.9,1.3c-3.6,0-6.5-1.2-8.8-3.6c-2.1-2.2-3.1-4.9-3.1-8.1c0-2,0.5-3.9,1.6-5.7C422.9,77,426.3,75.1,431,75z
		 M431,80.5c-1.7,0-3.1,0.6-4.3,1.8c-1.2,1.2-1.8,2.6-1.8,4.2c0,1.7,0.6,3.2,1.8,4.4c1.2,1.2,2.6,1.8,4.3,1.8c1.7,0,3.1-0.6,4.3-1.8
		c1.2-1.2,1.8-2.6,1.8-4.3c0-1.7-0.6-3.1-1.8-4.3C434.2,81.1,432.7,80.5,431,80.5z"/>
	<path d="M446.6,97.3V75.6h5.6l10.4,13.3V75.6h5.6v21.7h-5.6l-10.4-13.3v13.3H446.6z"/>
	<path d="M484.1,75c3.6,0,6.6,1.2,8.9,3.6c2.1,2.2,3.1,4.8,3.1,7.9c0,2.1-0.5,4.1-1.6,5.9c-1.1,1.9-2.7,3.4-4.7,4.4
		c-1.7,0.9-3.7,1.3-5.9,1.3c-3.6,0-6.5-1.2-8.8-3.6c-2.1-2.2-3.1-4.9-3.1-8.1c0-2,0.5-3.9,1.6-5.7C475.9,77,479.4,75.1,484.1,75z
		 M484.1,80.5c-1.7,0-3.1,0.6-4.3,1.8c-1.2,1.2-1.8,2.6-1.8,4.2c0,1.7,0.6,3.2,1.8,4.4c1.2,1.2,2.6,1.8,4.3,1.8
		c1.7,0,3.1-0.6,4.3-1.8c1.2-1.2,1.8-2.6,1.8-4.3c0-1.7-0.6-3.1-1.8-4.3C487.2,81.1,485.8,80.5,484.1,80.5z"/>
	<path d="M498.7,97.3l3.7-21.7h5.6l4.4,11.6l4.7-11.6h5.6l3.3,21.7h-5.6l-1.6-12.5l-5.2,12.5h-2.2l-5-12.5l-1.8,12.5H498.7z"/>
	<path d="M535.1,75.6v21.7h-5.6V75.6H535.1z"/>
	<path d="M552.9,93.6h-7.8l-1.5,3.8h-6l8.3-21.7h6.1l8.2,21.7h-6L552.9,93.6z M551.3,89.3l-2.3-6.9l-2.4,6.9H551.3z"/>
	<path d="M565.4,91.8h4.9l-5.3,9.5h-3.3L565.4,91.8z"/>
	<path d="M353.5,124.3h11.2c0,2.9-0.4,5.1-1.1,6.7c-0.9,2-2.2,3.5-3.9,4.5c-1.7,1.1-3.8,1.6-6.1,1.6c-2.4,0-4.5-0.5-6.4-1.6
		c-1.8-1.1-3.2-2.6-4.1-4.6c-0.8-1.6-1.1-3.4-1.1-5.3c0-2.2,0.5-4.1,1.4-6c1-1.9,2.4-3.3,4.3-4.3c1.8-0.9,3.9-1.4,6.1-1.4
		c2.3,0,4.3,0.5,5.9,1.5c1.6,1,2.9,2.5,3.9,4.6l-5.4,2.2c-1-2.3-2.5-3.4-4.7-3.4c-1.7,0-3,0.7-4.1,2c-1,1.3-1.6,2.9-1.6,4.8
		c0,2.1,0.6,3.9,1.9,5.3c1,1,2.3,1.6,3.9,1.6c1.6,0,2.8-0.5,3.7-1.6c0.4-0.5,0.7-1.2,0.8-2.2h-4.6V124.3z"/>
	<path d="M380.6,119.5h-6.7v3.6h6.3v4.8h-6.3v3.8h6.7v4.8h-12.3v-21.7h12.3V119.5z"/>
	<path d="M395.2,114c3.6,0,6.6,1.2,8.9,3.6c2.1,2.2,3.1,4.8,3.1,7.9c0,2.1-0.5,4.1-1.6,5.9c-1.1,1.9-2.7,3.4-4.7,4.4
		c-1.7,0.9-3.7,1.3-5.9,1.3c-3.6,0-6.5-1.2-8.8-3.6c-2.1-2.2-3.1-4.9-3.1-8.1c0-2,0.5-3.9,1.6-5.7C387,116,390.5,114.1,395.2,114z
		 M395.2,119.5c-1.7,0-3.1,0.6-4.3,1.8c-1.2,1.2-1.8,2.6-1.8,4.2c0,1.7,0.6,3.2,1.8,4.4c1.2,1.2,2.6,1.8,4.3,1.8
		c1.7,0,3.1-0.6,4.3-1.8c1.2-1.2,1.8-2.6,1.8-4.3c0-1.7-0.6-3.1-1.8-4.3C398.4,120.1,396.9,119.5,395.2,119.5z"/>
	<path d="M423.2,119.5h-6.8v3.6h6.2v4.8h-6.2v8.5h-5.6v-21.7h12.4V119.5z"/>
	<path d="M432.2,114.7v21.7h-5.6v-21.7H432.2z M434.7,109.2l-5.5,3.8l-2.2-2l4.7-4.5L434.7,109.2z"/>
	<path d="M451,115.9l-2.3,4.4c-1.2-1-2.4-1.5-3.7-1.5c-0.8,0-1.4,0.2-1.9,0.7c-0.4,0.4-0.6,0.8-0.6,1.2c0,0.7,0.5,1.2,1.4,1.6
		c0.3,0.1,1.1,0.4,2.6,0.8c1.9,0.6,3.2,1.3,4.1,2.3s1.2,2.2,1.2,3.8c0,2.8-0.9,4.8-2.8,6.1c-1.5,1.1-3.4,1.6-5.7,1.6
		c-2.7,0-5.2-0.8-7.5-2.5l2.4-4.5c1.7,1.5,3.3,2.2,5,2.2c1,0,1.7-0.3,2.2-0.8c0.4-0.4,0.5-0.9,0.5-1.3c0-0.6-0.2-1.1-0.7-1.4
		c-0.5-0.3-1.4-0.7-2.7-1.1c-2.1-0.6-3.4-1.2-4.1-1.7c-1.2-0.9-1.7-2.4-1.7-4.3c0-2.3,0.7-4.1,2.2-5.4c1.4-1.3,3.1-1.9,5.1-1.9
		C446.4,114.2,448.7,114.8,451,115.9z"/>
	<path d="M461,114.7v21.7h-5.6v-21.7H461z"/>
	<path d="M481.2,115.3v6.8c-1.3-1.6-2.9-2.4-4.9-2.4c-1.7,0-3.1,0.6-4.3,1.8c-1,1.1-1.5,2.4-1.5,4.2c0,1.9,0.6,3.3,1.9,4.4
		c1.1,1,2.4,1.4,3.9,1.4c1.8,0,3.5-0.8,4.9-2.3v6.7c-1.3,0.4-2.3,0.7-2.9,0.9c-0.6,0.1-1.3,0.2-2.1,0.2c-2,0-3.9-0.5-5.7-1.5
		c-1.9-1.1-3.4-2.5-4.4-4.3c-0.9-1.6-1.4-3.4-1.4-5.5c0-2.3,0.6-4.3,1.7-6.1c1.1-1.7,2.5-3.1,4.4-4c1.7-0.9,3.5-1.4,5.4-1.4
		C477.7,114.2,479.4,114.6,481.2,115.3z"/>
	<path d="M498.4,132.6h-7.8l-1.5,3.8h-6l8.3-21.7h6.1l8.2,21.7h-6L498.4,132.6z M496.9,128.3l-2.3-6.9l-2.4,6.9H496.9z"/>
	<path d="M355.3,158.5h-6.7v3.6h6.3v4.8h-6.3v3.8h6.7v4.8H343v-21.7h12.3V158.5z"/>
	<path d="M382.6,154.4v6.8c-1.3-1.6-2.9-2.4-4.9-2.4c-1.7,0-3.1,0.6-4.3,1.8c-1,1.1-1.5,2.4-1.5,4.2c0,1.9,0.6,3.3,1.9,4.4
		c1.1,1,2.4,1.4,3.9,1.4c1.8,0,3.5-0.8,4.9-2.3v6.7c-1.3,0.4-2.3,0.7-2.9,0.9s-1.3,0.2-2.1,0.2c-2,0-3.9-0.5-5.7-1.5
		c-1.9-1.1-3.4-2.5-4.4-4.3c-0.9-1.6-1.4-3.4-1.4-5.5c0-2.3,0.6-4.3,1.7-6.1c1.1-1.7,2.5-3.1,4.4-4c1.7-0.9,3.5-1.4,5.4-1.4
		C379.1,153.3,380.8,153.7,382.6,154.4z"/>
	<path d="M391.8,153.7v21.7h-5.6v-21.7H391.8z"/>
	<path d="M396,149.5l6.6-3.9l6.6,3.9l-1.6,2.5l-5.1-2.5l-5.1,2.5L396,149.5z M408.8,158.5h-6.7v3.6h6.3v4.8h-6.3v3.8h6.7v4.8h-12.3
		v-21.7h12.3V158.5z"/>
	<path d="M412.3,175.4v-21.7h5.6l10.4,13.3v-13.3h5.6v21.7h-5.6L418,162.2v13.3H412.3z"/>
	<path d="M454.4,154.4v6.8c-1.3-1.6-2.9-2.4-4.9-2.4c-1.7,0-3.1,0.6-4.3,1.8c-1,1.1-1.5,2.4-1.5,4.2c0,1.9,0.6,3.3,1.9,4.4
		c1.1,1,2.4,1.4,3.9,1.4c1.8,0,3.5-0.8,4.9-2.3v6.7c-1.3,0.4-2.3,0.7-2.9,0.9c-0.6,0.1-1.3,0.2-2.1,0.2c-2,0-3.9-0.5-5.7-1.5
		c-1.9-1.1-3.4-2.5-4.4-4.3c-0.9-1.6-1.4-3.4-1.4-5.5c0-2.3,0.6-4.3,1.7-6.1c1.1-1.7,2.5-3.1,4.4-4c1.7-0.9,3.5-1.4,5.4-1.4
		C450.8,153.3,452.5,153.7,454.4,154.4z"/>
	<path d="M463.6,153.7v21.7H458v-21.7H463.6z"/>
	<path d="M481.3,171.7h-7.8l-1.5,3.8h-6l8.3-21.7h6.1l8.2,21.7h-6L481.3,171.7z M479.8,167.4l-2.3-6.9l-2.4,6.9H479.8z"/>
	<path d="M505.4,155l-2.3,4.4c-1.2-1-2.4-1.5-3.7-1.5c-0.8,0-1.4,0.2-1.9,0.7c-0.4,0.4-0.6,0.8-0.6,1.2c0,0.7,0.5,1.2,1.4,1.6
		c0.3,0.1,1.1,0.4,2.6,0.8c1.9,0.6,3.2,1.3,4.1,2.3c0.8,0.9,1.2,2.2,1.2,3.8c0,2.8-0.9,4.8-2.8,6.1c-1.5,1.1-3.4,1.6-5.7,1.6
		c-2.7,0-5.2-0.8-7.5-2.5l2.4-4.5c1.7,1.5,3.3,2.2,5,2.2c1,0,1.7-0.3,2.2-0.8c0.4-0.4,0.5-0.9,0.5-1.3c0-0.6-0.2-1.1-0.7-1.4
		s-1.4-0.7-2.7-1.1c-2.1-0.6-3.4-1.2-4.1-1.7c-1.2-0.9-1.7-2.4-1.7-4.3c0-2.3,0.7-4.1,2.2-5.4c1.4-1.3,3.1-1.9,5.1-1.9
		C500.9,153.2,503.2,153.8,505.4,155z"/>
	<path d="M356.1,210.7h-7.8l-1.5,3.8h-6l8.3-21.7h6.1l8.2,21.7h-6L356.1,210.7z M354.6,206.4l-2.3-6.9l-2.4,6.9H354.6z"/>
	<path d="M373,197.6v16.9h-5.6v-16.9h-4.6v-4.8h14.9v4.8H373z"/>
	<path d="M379.2,214.5l3.7-21.7h5.6l4.4,11.6l4.7-11.6h5.6l3.3,21.7h-5.6l-1.6-12.5l-5.2,12.5h-2.2l-5-12.5l-1.8,12.5H379.2z"/>
	<path d="M421,192.1c3.6,0,6.6,1.2,8.9,3.6c2.1,2.2,3.1,4.8,3.1,7.9c0,2.1-0.5,4.1-1.6,5.9c-1.1,1.9-2.7,3.4-4.7,4.4
		c-1.7,0.9-3.7,1.3-5.9,1.3c-3.6,0-6.5-1.2-8.8-3.6c-2.1-2.2-3.1-4.9-3.1-8.1c0-2,0.5-3.9,1.6-5.7
		C412.8,194.1,416.3,192.2,421,192.1z M421,197.6c-1.7,0-3.1,0.6-4.3,1.8c-1.2,1.2-1.8,2.6-1.8,4.2c0,1.7,0.6,3.2,1.8,4.4
		c1.2,1.2,2.6,1.8,4.3,1.8c1.7,0,3.1-0.6,4.3-1.8c1.2-1.2,1.8-2.6,1.8-4.3c0-1.7-0.6-3.1-1.8-4.3C424.1,198.2,422.7,197.6,421,197.6
		z"/>
	<path d="M450.7,194l-2.3,4.4c-1.2-1-2.4-1.5-3.7-1.5c-0.8,0-1.4,0.2-1.9,0.7c-0.4,0.4-0.6,0.8-0.6,1.2c0,0.7,0.5,1.2,1.4,1.6
		c0.3,0.1,1.1,0.4,2.6,0.8c1.9,0.6,3.2,1.3,4.1,2.3c0.8,0.9,1.2,2.2,1.2,3.8c0,2.8-0.9,4.8-2.8,6.1c-1.5,1.1-3.4,1.6-5.7,1.6
		c-2.7,0-5.2-0.8-7.5-2.5l2.4-4.5c1.7,1.5,3.3,2.2,5,2.2c1,0,1.7-0.3,2.2-0.8c0.4-0.4,0.5-0.9,0.5-1.3c0-0.6-0.2-1.1-0.7-1.4
		c-0.5-0.3-1.4-0.7-2.7-1.1c-2.1-0.6-3.4-1.2-4.1-1.7c-1.2-0.9-1.7-2.4-1.7-4.3c0-2.3,0.7-4.1,2.2-5.4c1.4-1.3,3.1-1.9,5.1-1.9
		C446.2,192.3,448.5,192.9,450.7,194z"/>
	<path d="M467.6,197.6h-6.8v3.6h6.2v4.8h-6.2v8.5h-5.6v-21.7h12.4V197.6z"/>
	<path d="M483.3,197.6h-6.7v3.6h6.3v4.8h-6.3v3.8h6.7v4.8h-12.3v-21.7h12.3V197.6z M482.2,187.3l-5.5,3.8l-2.2-2l4.7-4.5
		L482.2,187.3z"/>
	<path d="M498.1,205.6l6.8,8.9h-7l-5.4-8.3v8.3h-5.6v-21.7h8.8c1.2,0,2.3,0.2,3.1,0.5s1.6,0.8,2.2,1.4c1.2,1.3,1.9,2.9,1.9,4.8
		c0,1-0.2,1.9-0.5,2.7c-0.4,0.9-0.8,1.6-1.4,2.1C500.2,204.9,499.3,205.3,498.1,205.6z M492.5,202.5h1c1.1,0,1.9-0.2,2.4-0.6
		c0.3-0.2,0.5-0.5,0.7-0.9s0.3-0.8,0.3-1.2s-0.1-0.8-0.3-1.2s-0.5-0.7-0.7-0.9c-0.5-0.4-1.3-0.6-2.4-0.6h-1V202.5z"/>
	<path d="M512.9,192.8v21.7h-5.6v-21.7H512.9z"/>
	<path d="M533.1,193.4v6.8c-1.3-1.6-2.9-2.4-4.9-2.4c-1.7,0-3.1,0.6-4.3,1.8c-1,1.1-1.5,2.4-1.5,4.2c0,1.9,0.6,3.3,1.9,4.4
		c1.1,1,2.4,1.4,3.9,1.4c1.8,0,3.5-0.8,4.9-2.3v6.7c-1.3,0.4-2.3,0.7-2.9,0.9s-1.3,0.2-2.1,0.2c-2,0-3.9-0.5-5.7-1.5
		c-1.9-1.1-3.4-2.5-4.4-4.3c-0.9-1.6-1.4-3.4-1.4-5.5c0-2.3,0.6-4.3,1.7-6.1c1.1-1.7,2.5-3.1,4.4-4c1.7-0.9,3.5-1.4,5.4-1.4
		C529.5,192.3,531.2,192.7,533.1,193.4z"/>
	<path d="M550.3,210.7h-7.8l-1.5,3.8h-6l8.3-21.7h6.1l8.2,21.7h-6L550.3,210.7z M548.7,206.4l-2.3-6.9l-2.4,6.9H548.7z"/>
	<path d="M574.3,194l-2.3,4.4c-1.2-1-2.4-1.5-3.7-1.5c-0.8,0-1.4,0.2-1.9,0.7c-0.4,0.4-0.6,0.8-0.6,1.2c0,0.7,0.5,1.2,1.4,1.6
		c0.3,0.1,1.1,0.4,2.6,0.8c1.9,0.6,3.2,1.3,4.1,2.3c0.8,0.9,1.2,2.2,1.2,3.8c0,2.8-0.9,4.8-2.8,6.1c-1.5,1.1-3.4,1.6-5.7,1.6
		c-2.7,0-5.2-0.8-7.5-2.5l2.4-4.5c1.7,1.5,3.3,2.2,5,2.2c1,0,1.7-0.3,2.2-0.8c0.4-0.4,0.5-0.9,0.5-1.3c0-0.6-0.2-1.1-0.7-1.4
		c-0.5-0.3-1.4-0.7-2.7-1.1c-2.1-0.6-3.4-1.2-4.1-1.7c-1.2-0.9-1.7-2.4-1.7-4.3c0-2.3,0.7-4.1,2.2-5.4c1.4-1.3,3.1-1.9,5.1-1.9
		C569.8,192.3,572.1,192.9,574.3,194z"/>
</g>
</svg>
