<?xml version="1.0" encoding="utf-8"?>
<!-- Generator: Adobe Illustrator 20.1.0, SVG Export Plug-In . SVG Version: 6.00 Build 0)  -->
<svg version="1.1" id="Camada_1" xmlns="http://www.w3.org/2000/svg" xmlns:xlink="http://www.w3.org/1999/xlink" x="0px" y="0px"
	 viewBox="0 0 560 560" style="enable-background:new 0 0 560 560;" xml:space="preserve">
<g>
	<g>
		<path d="M431.2,319c-3.5,9-9.9,17.1-17.6,23.8c-7.9,6.8-17.1,12.8-26.9,17.6c-9.9,4.7-20.4,8.8-31.2,11.8
			c-21.7,6.1-44.8,8.9-67.7,9c-2.7-0.1-5.9,0-8.7-0.1c-2.8-0.2-5.6-0.2-8.5-0.4c-2.9-0.2-5.7-0.4-8.6-0.7l-4.3-0.4l-4.2-0.5
			c-5.7-0.7-11.2-1.7-16.8-2.7c-5.5-1.2-11-2.4-16.3-4c-10.7-3-21-6.9-30.7-11.5c-9.6-4.7-18.6-10.1-26.1-16.6
			c-7.5-6.4-13.5-13.7-16.9-21.6c-0.7-1.7-0.7-3.6-1.7-5.4V317h-20c0,0,0,0.4,0,0.4c0,4.5,1.4,8.9,3.1,13.1c2.3,6,5.4,11.5,9.3,16.4
			c3.9,4.9,8.1,9.3,12.8,13.3c9.5,7.8,20,14.1,31,19c11.1,4.9,22.6,8.6,34.5,11.4c23.6,5.6,48.1,7.6,72.4,6.8
			c24.3-0.8,48.5-4.4,71.4-11.6c11.5-3.5,22.6-8,33.1-13.5c10.5-5.5,20.4-12.1,29-20.2c8.5-8.1,15.9-18.2,19.8-29.4
			c0.4-1.1,0.7-1.8,1-3.8H431.2z"/>
	</g>
	<polygon points="83.6,49 87.6,311.9 101.5,311.9 105.5,49 	"/>
	<g>
		<path d="M285.2,226.4c-6.1,0-12.2-0.1-18.2,0.2L218.4,48h-14.7l-79.8,264h20.9c2.6-13,5.8-18.4,5.8-18.4
			c17.3-25.5,58.2-46.4,109.2-54.2L285,312h5.2L270,238c3.2-0.4,6.3-0.7,9.5-1c21.1-1.7,41.4-1,60,1.7l4.3-6.3
			C325.7,228.6,305.9,226.4,285.2,226.4z M161.9,257.2L211.2,100l44.6,127.9C218.4,231.6,185.5,242.2,161.9,257.2z"/>
		<polygon points="476.4,359.9 415.3,283 334.4,300.3 342.7,311.3 408.6,297.6 464.7,362.4 		"/>
	</g>
</g>
<g>
	<path d="M88.6,424.6v19.2h-5v-19.2H88.6z"/>
	<path d="M92.6,443.8v-19.2h5l9.2,11.8v-11.8h5v19.2h-5l-9.2-11.8v11.8H92.6z"/>
	<path d="M128.4,425.7l-2,3.9c-1.1-0.9-2.2-1.3-3.3-1.3c-0.7,0-1.3,0.2-1.6,0.6c-0.3,0.3-0.5,0.7-0.5,1.1c0,0.6,0.4,1.1,1.2,1.5
		c0.2,0.1,1,0.3,2.3,0.7c1.7,0.5,2.9,1.2,3.6,2c0.7,0.8,1.1,1.9,1.1,3.3c0,2.5-0.8,4.3-2.5,5.5c-1.4,0.9-3,1.4-5,1.4
		c-2.4,0-4.6-0.7-6.7-2.2l2.1-4c1.5,1.3,3,2,4.4,2c0.9,0,1.5-0.2,1.9-0.7c0.3-0.4,0.5-0.8,0.5-1.2c0-0.5-0.2-0.9-0.6-1.2
		c-0.4-0.3-1.2-0.6-2.4-1c-1.8-0.5-3-1.1-3.6-1.5c-1-0.8-1.5-2.1-1.5-3.8c0-2,0.7-3.6,2-4.8c1.2-1.1,2.7-1.7,4.6-1.7
		C124.4,424.2,126.4,424.7,128.4,425.7z"/>
	<path d="M139.6,428.8v15h-5v-15h-4.1v-4.2h13.2v4.2H139.6z"/>
	<path d="M151,424.6v19.2h-5v-19.2H151z"/>
	<path d="M162.3,428.8v15h-5v-15h-4.1v-4.2h13.2v4.2H162.3z"/>
	<path d="M173.6,424.6V435c0,1.1,0,1.8,0.1,2.2c0.1,0.4,0.2,0.8,0.5,1.2c0.6,1,1.5,1.5,2.8,1.5c0.6,0,1.2-0.1,1.7-0.4
		c0.5-0.3,0.9-0.7,1.2-1.1c0.2-0.4,0.3-0.8,0.4-1.2c0.1-0.4,0.1-1.1,0.1-2.1v-10.4h5v11.1c0,1.8-0.2,3.3-0.7,4.2
		c-0.7,1.5-1.9,2.6-3.3,3.4c-1.3,0.7-2.8,1-4.5,1c-1.9,0-3.6-0.4-5-1.3c-1.2-0.7-2-1.6-2.5-2.7c-0.5-1.1-0.7-2.7-0.7-4.7v-11.1
		H173.6z"/>
	<path d="M196.7,428.8v15h-5v-15h-4.1v-4.2h13.2v4.2H196.7z"/>
	<path d="M212.5,424c3.2,0,5.8,1.1,7.9,3.2c1.9,1.9,2.8,4.3,2.8,7c0,1.9-0.5,3.6-1.4,5.2c-1,1.7-2.4,3-4.1,3.9
		c-1.5,0.8-3.3,1.2-5.2,1.2c-3.2,0-5.8-1.1-7.8-3.2c-1.9-2-2.8-4.4-2.8-7.2c0-1.8,0.5-3.5,1.4-5C205.2,425.8,208.3,424.1,212.5,424z
		 M212.5,428.9c-1.5,0-2.8,0.5-3.8,1.6c-1.1,1.1-1.6,2.3-1.6,3.8c0,1.5,0.5,2.8,1.6,3.9c1,1.1,2.3,1.6,3.8,1.6
		c1.5,0,2.8-0.5,3.8-1.6c1.1-1.1,1.6-2.3,1.6-3.8c0-1.5-0.5-2.8-1.6-3.8C215.3,429.4,214,428.9,212.5,428.9z"/>
	<path d="M233.5,443.8v-19.2h7.4c2.4,0,4.5,0.9,6.3,2.6c1,1,1.8,2.1,2.4,3.4c0.5,1.2,0.8,2.4,0.8,3.7c0,1.8-0.5,3.5-1.5,5.2
		c-1,1.6-2.4,2.8-4.1,3.6c-1.2,0.6-2.5,0.9-3.9,0.9H233.5z M238.5,439.6h1.1c0.9,0,1.7-0.1,2.4-0.4c0.6-0.3,1.2-0.7,1.7-1.2
		c0.9-1,1.4-2.3,1.4-3.8c0-1.5-0.5-2.7-1.4-3.8c-0.5-0.6-1.1-1-1.7-1.2c-0.6-0.3-1.4-0.4-2.4-0.4h-1.1V439.6z"/>
	<path d="M264.5,428.8h-5.9v3.2h5.6v4.2h-5.6v3.3h5.9v4.2h-10.9v-19.2h10.9V428.8z"/>
	<path d="M286.6,440.5h-6.9l-1.3,3.4h-5.3l7.4-19.2h5.5l7.2,19.2h-5.3L286.6,440.5z M285.2,436.7l-2.1-6.1l-2.1,6.1H285.2z"/>
	<path d="M307.9,425.7l-2,3.9c-1.1-0.9-2.2-1.3-3.3-1.3c-0.7,0-1.3,0.2-1.6,0.6c-0.3,0.3-0.5,0.7-0.5,1.1c0,0.6,0.4,1.1,1.2,1.5
		c0.2,0.1,1,0.3,2.3,0.7c1.7,0.5,2.9,1.2,3.6,2c0.7,0.8,1.1,1.9,1.1,3.3c0,2.5-0.8,4.3-2.5,5.5c-1.4,0.9-3,1.4-5,1.4
		c-2.4,0-4.6-0.7-6.7-2.2l2.1-4c1.5,1.3,3,2,4.4,2c0.9,0,1.5-0.2,1.9-0.7c0.3-0.4,0.5-0.8,0.5-1.2c0-0.5-0.2-0.9-0.6-1.2
		c-0.4-0.3-1.2-0.6-2.4-1c-1.8-0.5-3-1.1-3.6-1.5c-1-0.8-1.5-2.1-1.5-3.8c0-2,0.7-3.6,2-4.8c1.2-1.1,2.7-1.7,4.6-1.7
		C303.9,424.2,306,424.7,307.9,425.7z"/>
	<path d="M319.2,428.8v15h-5v-15h-4.1v-4.2h13.2v4.2H319.2z"/>
	<path d="M335.4,436l6,7.9h-6.2l-4.8-7.4v7.4h-5v-19.2h7.8c1.1,0,2,0.1,2.8,0.4c0.8,0.3,1.4,0.7,2,1.3c1.1,1.2,1.6,2.6,1.6,4.3
		c0,0.8-0.2,1.6-0.5,2.4c-0.3,0.8-0.7,1.4-1.3,1.8C337.3,435.3,336.5,435.7,335.4,436z M330.5,433.2h0.9c0.9,0,1.7-0.2,2.1-0.5
		c0.3-0.2,0.5-0.5,0.7-0.8c0.2-0.4,0.3-0.7,0.3-1c0-0.3-0.1-0.7-0.3-1c-0.2-0.4-0.4-0.6-0.7-0.8c-0.5-0.3-1.2-0.5-2.1-0.5h-0.9
		V433.2z"/>
	<path d="M353,424c3.2,0,5.8,1.1,7.9,3.2c1.9,1.9,2.8,4.3,2.8,7c0,1.9-0.5,3.6-1.4,5.2c-1,1.7-2.4,3-4.1,3.9
		c-1.5,0.8-3.3,1.2-5.2,1.2c-3.2,0-5.8-1.1-7.8-3.2c-1.9-2-2.8-4.4-2.8-7.2c0-1.8,0.5-3.5,1.4-5C345.7,425.8,348.8,424.1,353,424z
		 M353,428.9c-1.5,0-2.8,0.5-3.8,1.6c-1.1,1.1-1.6,2.3-1.6,3.8c0,1.5,0.5,2.8,1.6,3.9c1,1.1,2.3,1.6,3.8,1.6c1.5,0,2.8-0.5,3.8-1.6
		c1.1-1.1,1.6-2.3,1.6-3.8c0-1.5-0.5-2.8-1.6-3.8C355.8,429.4,354.5,428.9,353,428.9z"/>
	<path d="M366.8,443.8v-19.2h5l9.2,11.8v-11.8h5v19.2h-5l-9.2-11.8v11.8H366.8z"/>
	<path d="M400,424c3.2,0,5.8,1.1,7.9,3.2c1.9,1.9,2.8,4.3,2.8,7c0,1.9-0.5,3.6-1.4,5.2c-1,1.7-2.4,3-4.1,3.9
		c-1.5,0.8-3.3,1.2-5.2,1.2c-3.2,0-5.8-1.1-7.8-3.2c-1.9-2-2.8-4.4-2.8-7.2c0-1.8,0.5-3.5,1.4-5C392.8,425.8,395.9,424.1,400,424z
		 M400,428.9c-1.5,0-2.8,0.5-3.8,1.6c-1.1,1.1-1.6,2.3-1.6,3.8c0,1.5,0.5,2.8,1.6,3.9c1,1.1,2.3,1.6,3.8,1.6c1.5,0,2.8-0.5,3.8-1.6
		c1.1-1.1,1.6-2.3,1.6-3.8c0-1.5-0.5-2.8-1.6-3.8C402.8,429.4,401.5,428.9,400,428.9z"/>
	<path d="M413,443.8l3.3-19.2h4.9l3.9,10.3l4.1-10.3h5l2.9,19.2h-5l-1.4-11.1l-4.6,11.1h-2l-4.4-11.1l-1.6,11.1H413z"/>
	<path d="M445.3,424.6v19.2h-5v-19.2H445.3z"/>
	<path d="M461,440.5h-6.9l-1.3,3.4h-5.3l7.4-19.2h5.5l7.2,19.2h-5.3L461,440.5z M459.7,436.7l-2.1-6.1l-2.1,6.1H459.7z"/>
	<path d="M472.1,439h4.3l-4.7,8.5h-3L472.1,439z"/>
	<path d="M140.1,467.8h9.9c0,2.6-0.4,4.5-1,5.9c-0.8,1.8-2,3.1-3.5,4c-1.5,0.9-3.3,1.4-5.4,1.4c-2.1,0-4-0.5-5.6-1.4
		c-1.6-0.9-2.8-2.3-3.6-4.1c-0.7-1.5-1-3-1-4.7c0-1.9,0.4-3.7,1.3-5.3c0.9-1.7,2.1-3,3.8-3.8c1.6-0.8,3.4-1.3,5.4-1.3
		c2,0,3.8,0.4,5.2,1.3c1.4,0.9,2.6,2.2,3.5,4.1l-4.7,2c-0.9-2-2.3-3-4.2-3c-1.5,0-2.7,0.6-3.6,1.8c-0.9,1.2-1.4,2.6-1.4,4.3
		c0,1.9,0.6,3.4,1.7,4.7c0.9,0.9,2,1.4,3.4,1.4c1.4,0,2.5-0.5,3.3-1.4c0.3-0.4,0.6-1.1,0.7-1.9h-4.1V467.8z"/>
	<path d="M164.2,463.5h-5.9v3.2h5.6v4.2h-5.6v3.3h5.9v4.2h-10.9v-19.2h10.9V463.5z"/>
	<path d="M177.1,458.7c3.2,0,5.8,1.1,7.9,3.2c1.9,1.9,2.8,4.3,2.8,7c0,1.9-0.5,3.6-1.4,5.2c-1,1.7-2.4,3-4.1,3.9
		c-1.5,0.8-3.3,1.2-5.2,1.2c-3.2,0-5.8-1.1-7.8-3.2c-1.9-2-2.8-4.4-2.8-7.2c0-1.8,0.5-3.5,1.4-5
		C169.9,460.4,172.9,458.7,177.1,458.7z M177.1,463.5c-1.5,0-2.8,0.5-3.8,1.6c-1.1,1.1-1.6,2.3-1.6,3.8c0,1.5,0.5,2.8,1.6,3.9
		c1,1.1,2.3,1.6,3.8,1.6c1.5,0,2.8-0.5,3.8-1.6c1.1-1.1,1.6-2.3,1.6-3.8c0-1.5-0.5-2.8-1.6-3.8C179.9,464.1,178.6,463.5,177.1,463.5
		z"/>
	<path d="M202,463.5h-6v3.2h5.5v4.2h-5.5v7.6h-5v-19.2h11V463.5z"/>
	<path d="M209.9,459.2v19.2h-5v-19.2H209.9z M212.1,454.4l-4.9,3.3l-1.9-1.8l4.2-4L212.1,454.4z"/>
	<path d="M226.5,460.3l-2,3.9c-1.1-0.9-2.2-1.3-3.3-1.3c-0.7,0-1.3,0.2-1.6,0.6c-0.3,0.3-0.5,0.7-0.5,1.1c0,0.6,0.4,1.1,1.2,1.5
		c0.2,0.1,1,0.3,2.3,0.7c1.7,0.5,2.9,1.2,3.6,2c0.7,0.8,1.1,1.9,1.1,3.3c0,2.5-0.8,4.3-2.5,5.5c-1.4,0.9-3,1.4-5,1.4
		c-2.4,0-4.6-0.7-6.7-2.2l2.1-4c1.5,1.3,3,2,4.4,2c0.9,0,1.5-0.2,1.9-0.7c0.3-0.4,0.5-0.8,0.5-1.2c0-0.5-0.2-0.9-0.6-1.2
		c-0.4-0.3-1.2-0.6-2.4-1c-1.8-0.5-3-1.1-3.6-1.5c-1-0.8-1.5-2.1-1.5-3.8c0-2,0.7-3.6,2-4.8c1.2-1.1,2.7-1.7,4.6-1.7
		C222.5,458.8,224.6,459.3,226.5,460.3z"/>
	<path d="M235.5,459.2v19.2h-5v-19.2H235.5z"/>
	<path d="M253.4,459.8v6c-1.1-1.4-2.6-2.1-4.3-2.1c-1.5,0-2.8,0.5-3.8,1.6c-0.9,0.9-1.4,2.2-1.4,3.7c0,1.6,0.6,2.9,1.7,3.9
		c1,0.9,2.2,1.3,3.5,1.3c1.6,0,3.1-0.7,4.3-2v5.9c-1.2,0.4-2.1,0.7-2.6,0.8c-0.6,0.1-1.2,0.2-1.9,0.2c-1.8,0-3.5-0.4-5.1-1.3
		c-1.7-0.9-3-2.2-3.9-3.8c-0.8-1.4-1.2-3.1-1.2-4.8c0-2,0.5-3.8,1.5-5.4c0.9-1.5,2.2-2.7,3.9-3.6c1.5-0.8,3.1-1.2,4.8-1.2
		C250.2,458.8,251.7,459.2,253.4,459.8z"/>
	<path d="M268.6,475.1h-6.9l-1.3,3.4h-5.3l7.4-19.2h5.5l7.2,19.2h-5.3L268.6,475.1z M267.2,471.3l-2.1-6.1l-2.1,6.1H267.2z"/>
	<path d="M295.6,463.5h-5.9v3.2h5.6v4.2h-5.6v3.3h5.9v4.2h-10.9v-19.2h10.9V463.5z"/>
	<path d="M319.8,459.8v6c-1.1-1.4-2.6-2.1-4.3-2.1c-1.5,0-2.8,0.5-3.8,1.6c-0.9,0.9-1.4,2.2-1.4,3.7c0,1.6,0.6,2.9,1.7,3.9
		c1,0.9,2.2,1.3,3.5,1.3c1.6,0,3.1-0.7,4.3-2v5.9c-1.2,0.4-2.1,0.7-2.6,0.8c-0.6,0.1-1.2,0.2-1.9,0.2c-1.8,0-3.5-0.4-5.1-1.3
		c-1.7-0.9-3-2.2-3.9-3.8c-0.8-1.4-1.2-3.1-1.2-4.8c0-2,0.5-3.8,1.5-5.4c0.9-1.5,2.2-2.7,3.9-3.6c1.5-0.8,3.1-1.2,4.8-1.2
		C316.6,458.8,318.1,459.2,319.8,459.8z"/>
	<path d="M328,459.2v19.2h-5v-19.2H328z"/>
	<path d="M331.6,455.5l5.9-3.5l5.9,3.5l-1.4,2.2l-4.5-2.3l-4.5,2.3L331.6,455.5z M343,463.5H337v3.2h5.6v4.2H337v3.3h5.9v4.2H332
		v-19.2H343V463.5z"/>
	<path d="M346.1,478.5v-19.2h5l9.2,11.8v-11.8h5v19.2h-5l-9.2-11.8v11.8H346.1z"/>
	<path d="M383.4,459.8v6c-1.1-1.4-2.6-2.1-4.3-2.1c-1.5,0-2.8,0.5-3.8,1.6c-0.9,0.9-1.4,2.2-1.4,3.7c0,1.6,0.6,2.9,1.7,3.9
		c1,0.9,2.2,1.3,3.5,1.3c1.6,0,3.1-0.7,4.3-2v5.9c-1.2,0.4-2.1,0.7-2.6,0.8c-0.6,0.1-1.2,0.2-1.9,0.2c-1.8,0-3.5-0.4-5.1-1.3
		c-1.7-0.9-3-2.2-3.9-3.8c-0.8-1.4-1.2-3.1-1.2-4.8c0-2,0.5-3.8,1.5-5.4c0.9-1.5,2.2-2.7,3.9-3.6c1.5-0.8,3.1-1.2,4.8-1.2
		C380.3,458.8,381.8,459.2,383.4,459.8z"/>
	<path d="M391.6,459.2v19.2h-5v-19.2H391.6z"/>
	<path d="M407.3,475.1h-6.9l-1.3,3.4h-5.3l7.4-19.2h5.5l7.2,19.2h-5.3L407.3,475.1z M406,471.3l-2.1-6.1l-2.1,6.1H406z"/>
	<path d="M428.7,460.3l-2,3.9c-1.1-0.9-2.2-1.3-3.3-1.3c-0.7,0-1.3,0.2-1.6,0.6c-0.3,0.3-0.5,0.7-0.5,1.1c0,0.6,0.4,1.1,1.2,1.5
		c0.2,0.1,1,0.3,2.3,0.7c1.7,0.5,2.9,1.2,3.6,2c0.7,0.8,1.1,1.9,1.1,3.3c0,2.5-0.8,4.3-2.5,5.5c-1.4,0.9-3,1.4-5,1.4
		c-2.4,0-4.6-0.7-6.7-2.2l2.1-4c1.5,1.3,3,2,4.4,2c0.9,0,1.5-0.2,1.9-0.7c0.3-0.4,0.5-0.8,0.5-1.2c0-0.5-0.2-0.9-0.6-1.2
		c-0.4-0.3-1.2-0.6-2.4-1c-1.8-0.5-3-1.1-3.6-1.5c-1-0.8-1.5-2.1-1.5-3.8c0-2,0.7-3.6,2-4.8c1.2-1.1,2.7-1.7,4.6-1.7
		C424.7,458.8,426.7,459.3,428.7,460.3z"/>
	<path d="M188.8,509.8h-6.9l-1.3,3.4h-5.3l7.4-19.2h5.5l7.2,19.2h-5.3L188.8,509.8z M187.5,505.9l-2.1-6.1l-2.1,6.1H187.5z"/>
	<path d="M203.8,498.1v15h-5v-15h-4.1v-4.2h13.2v4.2H203.8z"/>
	<path d="M209.3,513.1l3.3-19.2h4.9l3.9,10.3l4.1-10.3h5l2.9,19.2h-5l-1.4-11.1l-4.6,11.1h-2l-4.4-11.1l-1.6,11.1H209.3z"/>
	<path d="M246.3,493.3c3.2,0,5.8,1.1,7.9,3.2c1.9,1.9,2.8,4.3,2.8,7c0,1.9-0.5,3.6-1.4,5.2c-1,1.7-2.4,3-4.1,3.9
		c-1.5,0.8-3.3,1.2-5.2,1.2c-3.2,0-5.8-1.1-7.8-3.2c-1.9-2-2.8-4.4-2.8-7.2c0-1.8,0.5-3.5,1.4-5C239,495,242.1,493.4,246.3,493.3z
		 M246.3,498.1c-1.5,0-2.8,0.5-3.8,1.6c-1.1,1.1-1.6,2.3-1.6,3.8c0,1.5,0.5,2.8,1.6,3.9c1,1.1,2.3,1.6,3.8,1.6
		c1.5,0,2.8-0.5,3.8-1.6c1.1-1.1,1.6-2.3,1.6-3.8c0-1.5-0.5-2.8-1.6-3.8C249.1,498.7,247.8,498.2,246.3,498.1z"/>
	<path d="M272.7,495l-2,3.9c-1.1-0.9-2.2-1.3-3.3-1.3c-0.7,0-1.3,0.2-1.6,0.6c-0.3,0.3-0.5,0.7-0.5,1.1c0,0.6,0.4,1.1,1.2,1.5
		c0.2,0.1,1,0.3,2.3,0.7c1.7,0.5,2.9,1.2,3.6,2c0.7,0.8,1.1,1.9,1.1,3.3c0,2.5-0.8,4.3-2.5,5.5c-1.4,0.9-3,1.4-5,1.4
		c-2.4,0-4.6-0.7-6.7-2.2l2.1-4c1.5,1.3,3,2,4.4,2c0.9,0,1.5-0.2,1.9-0.7c0.3-0.4,0.5-0.8,0.5-1.2c0-0.5-0.2-0.9-0.6-1.2
		c-0.4-0.3-1.2-0.6-2.4-1c-1.8-0.5-3-1.1-3.6-1.5c-1-0.8-1.5-2.1-1.5-3.8c0-2,0.7-3.6,2-4.8c1.2-1.1,2.7-1.7,4.6-1.7
		C268.7,493.4,270.7,493.9,272.7,495z"/>
	<path d="M287.6,498.1h-6v3.2h5.5v4.2h-5.5v7.6h-5v-19.2h11V498.1z"/>
	<path d="M301.6,498.1h-5.9v3.2h5.6v4.2h-5.6v3.3h5.9v4.2h-10.9v-19.2h10.9V498.1z M300.6,489l-4.9,3.3l-1.9-1.8l4.2-4L300.6,489z"
		/>
	<path d="M314.7,505.2l6,7.9h-6.2l-4.8-7.4v7.4h-5v-19.2h7.8c1.1,0,2,0.1,2.8,0.4c0.8,0.3,1.4,0.7,2,1.3c1.1,1.2,1.6,2.6,1.6,4.3
		c0,0.8-0.2,1.6-0.5,2.4c-0.3,0.8-0.7,1.4-1.3,1.8C316.5,504.6,315.7,505,314.7,505.2z M309.7,502.5h0.9c0.9,0,1.7-0.2,2.1-0.5
		c0.3-0.2,0.5-0.5,0.7-0.8c0.2-0.4,0.3-0.7,0.3-1c0-0.3-0.1-0.7-0.3-1c-0.2-0.4-0.4-0.6-0.7-0.8c-0.5-0.3-1.2-0.5-2.1-0.5h-0.9
		V502.5z"/>
	<path d="M327.8,493.9v19.2h-5v-19.2H327.8z"/>
	<path d="M345.7,494.4v6c-1.1-1.4-2.6-2.1-4.3-2.1c-1.5,0-2.8,0.5-3.8,1.6c-0.9,0.9-1.4,2.2-1.4,3.7c0,1.6,0.6,2.9,1.7,3.9
		c1,0.9,2.2,1.3,3.5,1.3c1.6,0,3.1-0.7,4.3-2v5.9c-1.2,0.4-2.1,0.7-2.6,0.8c-0.6,0.1-1.2,0.2-1.9,0.2c-1.8,0-3.5-0.4-5.1-1.3
		c-1.7-0.9-3-2.2-3.9-3.8c-0.8-1.4-1.2-3.1-1.2-4.8c0-2,0.5-3.8,1.5-5.4c0.9-1.5,2.2-2.7,3.9-3.6c1.5-0.8,3.1-1.2,4.8-1.2
		C342.6,493.5,344.1,493.8,345.7,494.4z"/>
	<path d="M361,509.8h-6.9l-1.3,3.4h-5.3l7.4-19.2h5.5l7.2,19.2h-5.3L361,509.8z M359.6,505.9l-2.1-6.1l-2.1,6.1H359.6z"/>
	<path d="M382.3,495l-2,3.9c-1.1-0.9-2.2-1.3-3.3-1.3c-0.7,0-1.3,0.2-1.6,0.6c-0.3,0.3-0.5,0.7-0.5,1.1c0,0.6,0.4,1.1,1.2,1.5
		c0.2,0.1,1,0.3,2.3,0.7c1.7,0.5,2.9,1.2,3.6,2c0.7,0.8,1.1,1.9,1.1,3.3c0,2.5-0.8,4.3-2.5,5.5c-1.4,0.9-3,1.4-5,1.4
		c-2.4,0-4.6-0.7-6.7-2.2l2.1-4c1.5,1.3,3,2,4.4,2c0.9,0,1.5-0.2,1.9-0.7c0.3-0.4,0.5-0.8,0.5-1.2c0-0.5-0.2-0.9-0.6-1.2
		c-0.4-0.3-1.2-0.6-2.4-1c-1.8-0.5-3-1.1-3.6-1.5c-1-0.8-1.5-2.1-1.5-3.8c0-2,0.7-3.6,2-4.8c1.2-1.1,2.7-1.7,4.6-1.7
		C378.3,493.4,380.3,493.9,382.3,495z"/>
</g>
</svg>
